<svg width="16" height="18" viewBox="0 0 16 18" fill="none" xmlns="http://www.w3.org/2000/svg">
<path d="M4.38088 0V2.19044H6.57133V2.25616C2.84757 2.78186 0 6.00181 0 9.85699C0 14.0845 3.43899 17.5235 7.66655 17.5235C11.8941 17.5235 15.3331 14.0845 15.3331 9.85699C15.3331 8.87129 15.1141 7.95131 14.7855 7.11894L12.7922 7.95131C13.0331 8.58653 13.1427 9.19986 13.1427 9.8789C13.1427 12.9236 10.7113 15.355 7.66655 15.355C4.62183 15.355 2.19044 12.9236 2.19044 9.8789C2.19044 6.83418 4.62183 4.40279 7.66655 4.40279C8.32368 4.40279 8.95891 4.51231 9.59414 4.75326L10.3389 2.69424C9.83509 2.51901 9.30938 2.43139 8.76177 2.34377V2.21235H10.9522V0.0219044H4.38088V0ZM15.3331 2.54091C15.3331 2.54091 7.33798 8.69606 6.9218 9.11224C6.50561 9.55033 6.50561 10.1856 6.9218 10.6236C7.33798 11.0617 7.99511 11.0617 8.4332 10.6236C8.87129 10.1856 15.355 2.54091 15.355 2.54091H15.3331Z" fill="white"/>
</svg>
