<svg width="1920" height="177" viewBox="0 0 1920 177" fill="none" xmlns="http://www.w3.org/2000/svg">
<g filter="url(#filter0_d_0_1)">
<path d="M367.613 66H355.533V7.96H367.613V66ZM379.982 66V32.68L376.782 32.12C375.955 31.96 375.275 31.6667 374.742 31.24C374.235 30.8133 373.982 30.2 373.982 29.4V25H379.982V22.28C379.982 19.9333 380.342 17.8133 381.062 15.92C381.809 14 382.862 12.3867 384.222 11.08C385.582 9.74666 387.249 8.72 389.222 8C391.195 7.28 393.422 6.92 395.902 6.92C396.862 6.92 397.769 6.98666 398.622 7.12C399.502 7.22666 400.382 7.4 401.262 7.64L401.022 13.08C400.969 13.9067 400.609 14.4533 399.942 14.72C399.302 14.96 398.582 15.08 397.782 15.08C396.662 15.08 395.649 15.2 394.742 15.44C393.862 15.68 393.115 16.0933 392.502 16.68C391.889 17.24 391.422 18.0133 391.102 19C390.782 19.96 390.622 21.16 390.622 22.6V25H400.862V32.68H390.982V66H379.982ZM447.867 43.68V66H435.867V43.68L414.787 7.96H425.347C426.387 7.96 427.214 8.21333 427.827 8.72C428.467 9.2 428.974 9.82666 429.347 10.6L438.867 28.88C439.507 30.1067 440.08 31.2533 440.587 32.32C441.12 33.3867 441.587 34.4533 441.987 35.52C442.36 34.4533 442.787 33.3867 443.267 32.32C443.774 31.2267 444.334 30.08 444.947 28.88L454.387 10.6C454.707 9.96 455.187 9.36 455.827 8.8C456.467 8.24 457.294 7.96 458.307 7.96H468.947L447.867 43.68ZM482.223 24.12C485.316 24.12 488.129 24.6133 490.663 25.6C493.196 26.5867 495.369 28 497.183 29.84C498.996 31.6533 500.396 33.8667 501.383 36.48C502.369 39.0933 502.863 42.04 502.863 45.32C502.863 48.6 502.369 51.56 501.383 54.2C500.396 56.8133 498.996 59.04 497.183 60.88C495.369 62.72 493.196 64.1333 490.663 65.12C488.129 66.1067 485.316 66.6 482.223 66.6C479.103 66.6 476.263 66.1067 473.703 65.12C471.169 64.1333 468.996 62.72 467.183 60.88C465.369 59.04 463.956 56.8133 462.943 54.2C461.956 51.56 461.463 48.6 461.463 45.32C461.463 42.04 461.956 39.0933 462.943 36.48C463.956 33.8667 465.369 31.6533 467.183 29.84C468.996 28 471.169 26.5867 473.703 25.6C476.263 24.6133 479.103 24.12 482.223 24.12ZM482.223 58.32C485.369 58.32 487.703 57.24 489.223 55.08C490.743 52.8933 491.503 49.6533 491.503 45.36C491.503 41.0933 490.743 37.88 489.223 35.72C487.703 33.5333 485.369 32.44 482.223 32.44C478.996 32.44 476.623 33.5333 475.103 35.72C473.583 37.88 472.823 41.0933 472.823 45.36C472.823 49.6533 473.583 52.8933 475.103 55.08C476.623 57.24 478.996 58.32 482.223 58.32ZM545.994 24.76V66H539.194C537.781 66 536.874 65.36 536.474 64.08L535.754 61.2C534.928 62 534.074 62.7333 533.194 63.4C532.314 64.0667 531.368 64.64 530.354 65.12C529.368 65.6 528.288 65.9733 527.114 66.24C525.968 66.5067 524.714 66.64 523.354 66.64C521.114 66.64 519.114 66.2533 517.354 65.48C515.621 64.7067 514.168 63.6267 512.994 62.24C511.821 60.8533 510.928 59.2 510.314 57.28C509.701 55.36 509.394 53.2533 509.394 50.96V24.76H520.434V50.96C520.434 53.2533 520.954 55.04 521.994 56.32C523.061 57.5733 524.634 58.2 526.714 58.2C528.261 58.2 529.714 57.8667 531.074 57.2C532.434 56.5067 533.728 55.5733 534.954 54.4V24.76H545.994ZM653.379 7.96L635.379 66H624.539L612.659 28.04C612.472 27.5067 612.285 26.92 612.099 26.28C611.912 25.64 611.739 24.96 611.579 24.24C611.419 24.96 611.245 25.64 611.059 26.28C610.872 26.92 610.685 27.5067 610.499 28.04L598.499 66H587.619L569.659 7.96H579.739C580.779 7.96 581.645 8.2 582.339 8.68C583.059 9.16 583.525 9.8 583.739 10.6L592.739 43.32C592.952 44.2267 593.165 45.2133 593.379 46.28C593.619 47.32 593.845 48.4267 594.059 49.6C594.299 48.4 594.552 47.28 594.819 46.24C595.085 45.2 595.379 44.2267 595.699 43.32L606.179 10.6C606.392 9.93333 606.845 9.33333 607.539 8.8C608.259 8.24 609.125 7.96 610.139 7.96H613.659C614.699 7.96 615.539 8.21333 616.179 8.72C616.845 9.2 617.339 9.82666 617.659 10.6L628.099 43.32C628.419 44.1733 628.712 45.1067 628.979 46.12C629.245 47.1067 629.499 48.16 629.739 49.28C629.952 48.16 630.152 47.1067 630.339 46.12C630.552 45.1067 630.765 44.1733 630.979 43.32L639.979 10.6C640.165 9.90666 640.619 9.29333 641.339 8.76C642.059 8.22666 642.925 7.96 643.939 7.96H653.379ZM674.792 48.76C672.099 48.8933 669.859 49.1333 668.072 49.48C666.285 49.8 664.859 50.2267 663.792 50.76C662.752 51.2933 662.005 51.9067 661.552 52.6C661.125 53.2667 660.912 54 660.912 54.8C660.912 56.4 661.352 57.5333 662.232 58.2C663.139 58.8667 664.392 59.2 665.992 59.2C667.832 59.2 669.419 58.88 670.752 58.24C672.112 57.5733 673.459 56.5467 674.792 55.16V48.76ZM652.312 30.48C654.739 28.2933 657.419 26.6667 660.352 25.6C663.285 24.5067 666.459 23.96 669.872 23.96C672.325 23.96 674.512 24.36 676.432 25.16C678.379 25.96 680.019 27.08 681.352 28.52C682.712 29.9333 683.752 31.6267 684.472 33.6C685.192 35.5733 685.552 37.7333 685.552 40.08V66H680.512C679.472 66 678.672 65.8533 678.112 65.56C677.579 65.2667 677.139 64.6533 676.792 63.72L675.912 61.08C674.872 61.9867 673.859 62.7867 672.872 63.48C671.912 64.1733 670.912 64.76 669.872 65.24C668.832 65.6933 667.712 66.04 666.512 66.28C665.339 66.52 664.019 66.64 662.552 66.64C660.739 66.64 659.085 66.4 657.592 65.92C656.099 65.44 654.805 64.7333 653.712 63.8C652.645 62.84 651.819 61.6533 651.232 60.24C650.645 58.8267 650.352 57.2 650.352 55.36C650.352 53.84 650.739 52.32 651.512 50.8C652.285 49.28 653.605 47.9067 655.472 46.68C657.365 45.4267 659.872 44.4 662.992 43.6C666.139 42.7733 670.072 42.3067 674.792 42.2V40.08C674.792 37.4933 674.245 35.6 673.152 34.4C672.059 33.1733 670.485 32.56 668.432 32.56C666.912 32.56 665.645 32.7467 664.632 33.12C663.619 33.4667 662.725 33.8533 661.952 34.28C661.205 34.68 660.499 35.0667 659.832 35.44C659.165 35.7867 658.392 35.96 657.512 35.96C656.739 35.96 656.085 35.7733 655.552 35.4C655.045 35 654.619 34.5333 654.272 34L652.312 30.48ZM704.409 29.56C705.236 28.76 706.089 28.0267 706.969 27.36C707.876 26.6933 708.823 26.12 709.809 25.64C710.823 25.16 711.903 24.7867 713.049 24.52C714.223 24.2533 715.489 24.12 716.849 24.12C719.089 24.12 721.076 24.5067 722.809 25.28C724.543 26.0533 725.996 27.1333 727.169 28.52C728.369 29.9067 729.263 31.56 729.849 33.48C730.463 35.4 730.769 37.5067 730.769 39.8V66H719.769V39.8C719.769 37.5067 719.236 35.7333 718.169 34.48C717.103 33.2 715.529 32.56 713.449 32.56C711.903 32.56 710.449 32.8933 709.089 33.56C707.729 34.2267 706.436 35.16 705.209 36.36V66H694.169V24.76H700.969C702.356 24.76 703.276 25.4 703.729 26.68L704.409 29.56ZM753.253 66.64C751.386 66.64 749.733 66.3733 748.293 65.84C746.853 65.28 745.64 64.4933 744.653 63.48C743.666 62.4667 742.92 61.24 742.413 59.8C741.906 58.36 741.653 56.7333 741.653 54.92V32.68H737.773C737.186 32.68 736.68 32.4933 736.253 32.12C735.853 31.7467 735.653 31.1867 735.653 30.44V26.12L742.253 24.92L744.493 14.24C744.786 13.04 745.6 12.44 746.933 12.44H752.693V25H763.333V32.68H752.693V54.2C752.693 55.3467 752.96 56.2533 753.493 56.92C754.053 57.5867 754.84 57.92 755.853 57.92C756.386 57.92 756.84 57.8667 757.213 57.76C757.586 57.6267 757.906 57.4933 758.173 57.36C758.44 57.2 758.68 57.0667 758.893 56.96C759.133 56.8267 759.373 56.76 759.613 56.76C759.933 56.76 760.2 56.84 760.413 57C760.626 57.1333 760.84 57.3733 761.053 57.72L764.373 63C762.853 64.2 761.133 65.1067 759.213 65.72C757.293 66.3333 755.306 66.64 753.253 66.64ZM812.711 43.68V66H800.711V43.68L779.631 7.96H790.191C791.231 7.96 792.057 8.21333 792.671 8.72C793.311 9.2 793.817 9.82666 794.191 10.6L803.711 28.88C804.351 30.1067 804.924 31.2533 805.431 32.32C805.964 33.3867 806.431 34.4533 806.831 35.52C807.204 34.4533 807.631 33.3867 808.111 32.32C808.617 31.2267 809.177 30.08 809.791 28.88L819.231 10.6C819.551 9.96 820.031 9.36 820.671 8.8C821.311 8.24 822.137 7.96 823.151 7.96H833.791L812.711 43.68ZM847.066 24.12C850.16 24.12 852.973 24.6133 855.506 25.6C858.04 26.5867 860.213 28 862.026 29.84C863.84 31.6533 865.24 33.8667 866.226 36.48C867.213 39.0933 867.706 42.04 867.706 45.32C867.706 48.6 867.213 51.56 866.226 54.2C865.24 56.8133 863.84 59.04 862.026 60.88C860.213 62.72 858.04 64.1333 855.506 65.12C852.973 66.1067 850.16 66.6 847.066 66.6C843.946 66.6 841.106 66.1067 838.546 65.12C836.013 64.1333 833.84 62.72 832.026 60.88C830.213 59.04 828.8 56.8133 827.786 54.2C826.8 51.56 826.306 48.6 826.306 45.32C826.306 42.04 826.8 39.0933 827.786 36.48C828.8 33.8667 830.213 31.6533 832.026 29.84C833.84 28 836.013 26.5867 838.546 25.6C841.106 24.6133 843.946 24.12 847.066 24.12ZM847.066 58.32C850.213 58.32 852.546 57.24 854.066 55.08C855.586 52.8933 856.346 49.6533 856.346 45.36C856.346 41.0933 855.586 37.88 854.066 35.72C852.546 33.5333 850.213 32.44 847.066 32.44C843.84 32.44 841.466 33.5333 839.946 35.72C838.426 37.88 837.666 41.0933 837.666 45.36C837.666 49.6533 838.426 52.8933 839.946 55.08C841.466 57.24 843.84 58.32 847.066 58.32ZM910.838 24.76V66H904.038C902.625 66 901.718 65.36 901.318 64.08L900.598 61.2C899.771 62 898.918 62.7333 898.038 63.4C897.158 64.0667 896.211 64.64 895.198 65.12C894.211 65.6 893.131 65.9733 891.958 66.24C890.811 66.5067 889.558 66.64 888.198 66.64C885.958 66.64 883.958 66.2533 882.198 65.48C880.465 64.7067 879.011 63.6267 877.838 62.24C876.665 60.8533 875.771 59.2 875.158 57.28C874.545 55.36 874.238 53.2533 874.238 50.96V24.76H885.278V50.96C885.278 53.2533 885.798 55.04 886.838 56.32C887.905 57.5733 889.478 58.2 891.558 58.2C893.105 58.2 894.558 57.8667 895.918 57.2C897.278 56.5067 898.571 55.5733 899.798 54.4V24.76H910.838ZM979.975 51.72C980.642 51.72 981.202 51.96 981.655 52.44L986.415 57.52C984.068 60.5067 981.148 62.7733 977.655 64.32C974.188 65.8667 970.055 66.64 965.255 66.64C960.908 66.64 957.002 65.9067 953.535 64.44C950.068 62.9467 947.122 60.88 944.695 58.24C942.268 55.6 940.402 52.4667 939.095 48.84C937.788 45.2133 937.135 41.2533 937.135 36.96C937.135 34.08 937.442 31.3467 938.055 28.76C938.695 26.1467 939.615 23.7467 940.815 21.56C942.015 19.3733 943.455 17.4 945.135 15.64C946.842 13.88 948.762 12.3867 950.895 11.16C953.028 9.90666 955.348 8.96 957.855 8.32C960.388 7.65333 963.082 7.31999 965.935 7.31999C968.068 7.31999 970.082 7.50666 971.975 7.88C973.895 8.25333 975.682 8.77333 977.335 9.44C978.988 10.1067 980.508 10.92 981.895 11.88C983.308 12.8133 984.575 13.84 985.695 14.96L981.655 20.48C981.415 20.8267 981.108 21.1333 980.735 21.4C980.362 21.6667 979.855 21.8 979.215 21.8C978.575 21.8 977.922 21.5733 977.255 21.12C976.615 20.6667 975.815 20.16 974.855 19.6C973.922 19.04 972.735 18.5333 971.295 18.08C969.882 17.6267 968.082 17.4 965.895 17.4C963.468 17.4 961.242 17.84 959.215 18.72C957.188 19.6 955.442 20.88 953.975 22.56C952.535 24.2133 951.415 26.2533 950.615 28.68C949.815 31.1067 949.415 33.8667 949.415 36.96C949.415 40.08 949.842 42.8667 950.695 45.32C951.575 47.7467 952.762 49.8 954.255 51.48C955.775 53.16 957.535 54.44 959.535 55.32C961.562 56.1733 963.722 56.6 966.015 56.6C967.375 56.6 968.602 56.5333 969.695 56.4C970.815 56.2667 971.842 56.04 972.775 55.72C973.735 55.4 974.628 54.9867 975.455 54.48C976.308 53.9733 977.162 53.3333 978.015 52.56C978.308 52.32 978.615 52.12 978.935 51.96C979.255 51.8 979.602 51.72 979.975 51.72ZM1013.23 48.76C1010.54 48.8933 1008.3 49.1333 1006.51 49.48C1004.72 49.8 1003.3 50.2267 1002.23 50.76C1001.19 51.2933 1000.44 51.9067 999.989 52.6C999.563 53.2667 999.349 54 999.349 54.8C999.349 56.4 999.789 57.5333 1000.67 58.2C1001.58 58.8667 1002.83 59.2 1004.43 59.2C1006.27 59.2 1007.86 58.88 1009.19 58.24C1010.55 57.5733 1011.9 56.5467 1013.23 55.16V48.76ZM990.749 30.48C993.176 28.2933 995.856 26.6667 998.789 25.6C1001.72 24.5067 1004.9 23.96 1008.31 23.96C1010.76 23.96 1012.95 24.36 1014.87 25.16C1016.82 25.96 1018.46 27.08 1019.79 28.52C1021.15 29.9333 1022.19 31.6267 1022.91 33.6C1023.63 35.5733 1023.99 37.7333 1023.99 40.08V66H1018.95C1017.91 66 1017.11 65.8533 1016.55 65.56C1016.02 65.2667 1015.58 64.6533 1015.23 63.72L1014.35 61.08C1013.31 61.9867 1012.3 62.7867 1011.31 63.48C1010.35 64.1733 1009.35 64.76 1008.31 65.24C1007.27 65.6933 1006.15 66.04 1004.95 66.28C1003.78 66.52 1002.46 66.64 1000.99 66.64C999.176 66.64 997.523 66.4 996.029 65.92C994.536 65.44 993.243 64.7333 992.149 63.8C991.083 62.84 990.256 61.6533 989.669 60.24C989.083 58.8267 988.789 57.2 988.789 55.36C988.789 53.84 989.176 52.32 989.949 50.8C990.723 49.28 992.043 47.9067 993.909 46.68C995.803 45.4267 998.309 44.4 1001.43 43.6C1004.58 42.7733 1008.51 42.3067 1013.23 42.2V40.08C1013.23 37.4933 1012.68 35.6 1011.59 34.4C1010.5 33.1733 1008.92 32.56 1006.87 32.56C1005.35 32.56 1004.08 32.7467 1003.07 33.12C1002.06 33.4667 1001.16 33.8533 1000.39 34.28C999.643 34.68 998.936 35.0667 998.269 35.44C997.603 35.7867 996.829 35.96 995.949 35.96C995.176 35.96 994.523 35.7733 993.989 35.4C993.483 35 993.056 34.5333 992.709 34L990.749 30.48ZM1042.85 29.56C1043.67 28.76 1044.53 28.0267 1045.41 27.36C1046.31 26.6933 1047.26 26.12 1048.25 25.64C1049.26 25.16 1050.34 24.7867 1051.49 24.52C1052.66 24.2533 1053.93 24.12 1055.29 24.12C1057.53 24.12 1059.51 24.5067 1061.25 25.28C1062.98 26.0533 1064.43 27.1333 1065.61 28.52C1066.81 29.9067 1067.7 31.56 1068.29 33.48C1068.9 35.4 1069.21 37.5067 1069.21 39.8V66H1058.21V39.8C1058.21 37.5067 1057.67 35.7333 1056.61 34.48C1055.54 33.2 1053.97 32.56 1051.89 32.56C1050.34 32.56 1048.89 32.8933 1047.53 33.56C1046.17 34.2267 1044.87 35.16 1043.65 36.36V66H1032.61V24.76H1039.41C1040.79 24.76 1041.71 25.4 1042.17 26.68L1042.85 29.56ZM1129.94 19.08C1129.57 19.6933 1129.18 20.1467 1128.78 20.44C1128.41 20.7067 1127.92 20.84 1127.3 20.84C1126.72 20.84 1126.08 20.64 1125.38 20.24C1124.72 19.8133 1123.93 19.36 1123.02 18.88C1122.12 18.4 1121.08 17.96 1119.9 17.56C1118.73 17.1333 1117.36 16.92 1115.78 16.92C1113.01 16.92 1110.93 17.5467 1109.54 18.8C1108.16 20.0267 1107.46 21.64 1107.46 23.64C1107.46 24.92 1107.84 25.9867 1108.58 26.84C1109.36 27.6667 1110.36 28.3867 1111.58 29C1112.84 29.6133 1114.25 30.16 1115.82 30.64C1117.4 31.12 1119.01 31.6533 1120.66 32.24C1122.32 32.8 1123.93 33.4667 1125.5 34.24C1127.08 35.0133 1128.48 35.9867 1129.7 37.16C1130.96 38.3333 1131.96 39.7733 1132.7 41.48C1133.48 43.16 1133.86 45.2133 1133.86 47.64C1133.86 50.28 1133.4 52.76 1132.46 55.08C1131.56 57.3733 1130.24 59.3867 1128.5 61.12C1126.77 62.8267 1124.62 64.1733 1122.06 65.16C1119.53 66.1467 1116.65 66.64 1113.42 66.64C1111.58 66.64 1109.74 66.4533 1107.9 66.08C1106.09 65.7067 1104.33 65.1867 1102.62 64.52C1100.94 63.8533 1099.36 63.0533 1097.86 62.12C1096.37 61.1867 1095.06 60.1467 1093.94 59L1097.46 53.32C1097.76 52.8933 1098.14 52.5467 1098.62 52.28C1099.1 51.9867 1099.61 51.84 1100.14 51.84C1100.86 51.84 1101.62 52.1067 1102.42 52.64C1103.22 53.1733 1104.14 53.76 1105.18 54.4C1106.22 55.04 1107.42 55.6267 1108.78 56.16C1110.17 56.6933 1111.82 56.96 1113.74 56.96C1116.54 56.96 1118.7 56.32 1120.22 55.04C1121.77 53.76 1122.54 51.8533 1122.54 49.32C1122.54 47.8533 1122.16 46.6667 1121.38 45.76C1120.64 44.8533 1119.65 44.0933 1118.42 43.48C1117.2 42.8667 1115.8 42.3467 1114.22 41.92C1112.65 41.4667 1111.04 40.9733 1109.38 40.44C1107.73 39.9067 1106.12 39.2667 1104.54 38.52C1102.97 37.7733 1101.57 36.7867 1100.34 35.56C1099.12 34.3333 1098.12 32.8133 1097.34 31C1096.6 29.1867 1096.22 26.9333 1096.22 24.24C1096.22 22.08 1096.65 19.9867 1097.5 17.96C1098.36 15.9333 1099.61 14.1333 1101.26 12.56C1102.92 10.9867 1104.94 9.72 1107.34 8.76C1109.77 7.8 1112.54 7.31999 1115.66 7.31999C1119.16 7.31999 1122.38 7.86666 1125.34 8.96C1128.33 10.0267 1130.85 11.52 1132.9 13.44L1129.94 19.08ZM1167.13 40.52C1167.13 39.3733 1166.97 38.28 1166.65 37.24C1166.35 36.2 1165.87 35.28 1165.21 34.48C1164.54 33.68 1163.7 33.0533 1162.69 32.6C1161.67 32.12 1160.46 31.88 1159.05 31.88C1156.41 31.88 1154.34 32.6267 1152.85 34.12C1151.35 35.6133 1150.38 37.7467 1149.93 40.52H1167.13ZM1149.77 47.08C1150.11 50.9467 1151.21 53.7733 1153.05 55.56C1154.91 57.3467 1157.34 58.24 1160.33 58.24C1161.85 58.24 1163.15 58.0667 1164.25 57.72C1165.37 57.3467 1166.34 56.9467 1167.17 56.52C1168.02 56.0667 1168.78 55.6667 1169.45 55.32C1170.14 54.9467 1170.82 54.76 1171.49 54.76C1172.34 54.76 1173.01 55.08 1173.49 55.72L1176.69 59.72C1175.51 61.08 1174.22 62.2133 1172.81 63.12C1171.39 64 1169.93 64.7067 1168.41 65.24C1166.89 65.7467 1165.35 66.0933 1163.81 66.28C1162.26 66.4933 1160.77 66.6 1159.33 66.6C1156.45 66.6 1153.75 66.1333 1151.25 65.2C1148.77 64.24 1146.59 62.84 1144.73 61C1142.89 59.1333 1141.43 56.8267 1140.37 54.08C1139.3 51.3333 1138.77 48.1467 1138.77 44.52C1138.77 41.72 1139.22 39.08 1140.13 36.6C1141.06 34.12 1142.39 31.96 1144.13 30.12C1145.86 28.28 1147.97 26.8267 1150.45 25.76C1152.93 24.6667 1155.73 24.12 1158.85 24.12C1161.49 24.12 1163.91 24.5467 1166.13 25.4C1168.37 26.2267 1170.29 27.44 1171.89 29.04C1173.51 30.64 1174.77 32.6133 1175.65 34.96C1176.55 37.28 1177.01 39.9333 1177.01 42.92C1177.01 43.7467 1176.97 44.4267 1176.89 44.96C1176.81 45.4933 1176.67 45.92 1176.49 46.24C1176.3 46.56 1176.05 46.7867 1175.73 46.92C1175.41 47.0267 1174.99 47.08 1174.49 47.08H1149.77ZM1210.02 40.52C1210.02 39.3733 1209.86 38.28 1209.54 37.24C1209.24 36.2 1208.76 35.28 1208.1 34.48C1207.43 33.68 1206.59 33.0533 1205.58 32.6C1204.56 32.12 1203.35 31.88 1201.94 31.88C1199.3 31.88 1197.23 32.6267 1195.74 34.12C1194.24 35.6133 1193.27 37.7467 1192.82 40.52H1210.02ZM1192.66 47.08C1193 50.9467 1194.1 53.7733 1195.94 55.56C1197.8 57.3467 1200.23 58.24 1203.22 58.24C1204.74 58.24 1206.04 58.0667 1207.14 57.72C1208.26 57.3467 1209.23 56.9467 1210.06 56.52C1210.91 56.0667 1211.67 55.6667 1212.34 55.32C1213.03 54.9467 1213.71 54.76 1214.38 54.76C1215.23 54.76 1215.9 55.08 1216.38 55.72L1219.58 59.72C1218.4 61.08 1217.11 62.2133 1215.7 63.12C1214.28 64 1212.82 64.7067 1211.3 65.24C1209.78 65.7467 1208.24 66.0933 1206.7 66.28C1205.15 66.4933 1203.66 66.6 1202.22 66.6C1199.34 66.6 1196.64 66.1333 1194.14 65.2C1191.66 64.24 1189.48 62.84 1187.62 61C1185.78 59.1333 1184.32 56.8267 1183.26 54.08C1182.19 51.3333 1181.66 48.1467 1181.66 44.52C1181.66 41.72 1182.11 39.08 1183.02 36.6C1183.95 34.12 1185.28 31.96 1187.02 30.12C1188.75 28.28 1190.86 26.8267 1193.34 25.76C1195.82 24.6667 1198.62 24.12 1201.74 24.12C1204.38 24.12 1206.8 24.5467 1209.02 25.4C1211.26 26.2267 1213.18 27.44 1214.78 29.04C1216.4 30.64 1217.66 32.6133 1218.54 34.96C1219.44 37.28 1219.9 39.9333 1219.9 42.92C1219.9 43.7467 1219.86 44.4267 1219.78 44.96C1219.7 45.4933 1219.56 45.92 1219.38 46.24C1219.19 46.56 1218.94 46.7867 1218.62 46.92C1218.3 47.0267 1217.88 47.08 1217.38 47.08H1192.66ZM1296.97 7.96V66H1284.89V41H1259.33V66H1247.25V7.96H1259.33V32.6H1284.89V7.96H1296.97ZM1324.96 24.12C1328.05 24.12 1330.86 24.6133 1333.4 25.6C1335.93 26.5867 1338.1 28 1339.92 29.84C1341.73 31.6533 1343.13 33.8667 1344.12 36.48C1345.1 39.0933 1345.6 42.04 1345.6 45.32C1345.6 48.6 1345.1 51.56 1344.12 54.2C1343.13 56.8133 1341.73 59.04 1339.92 60.88C1338.1 62.72 1335.93 64.1333 1333.4 65.12C1330.86 66.1067 1328.05 66.6 1324.96 66.6C1321.84 66.6 1319 66.1067 1316.44 65.12C1313.9 64.1333 1311.73 62.72 1309.92 60.88C1308.1 59.04 1306.69 56.8133 1305.68 54.2C1304.69 51.56 1304.2 48.6 1304.2 45.32C1304.2 42.04 1304.69 39.0933 1305.68 36.48C1306.69 33.8667 1308.1 31.6533 1309.92 29.84C1311.73 28 1313.9 26.5867 1316.44 25.6C1319 24.6133 1321.84 24.12 1324.96 24.12ZM1324.96 58.32C1328.1 58.32 1330.44 57.24 1331.96 55.08C1333.48 52.8933 1334.24 49.6533 1334.24 45.36C1334.24 41.0933 1333.48 37.88 1331.96 35.72C1330.44 33.5333 1328.1 32.44 1324.96 32.44C1321.73 32.44 1319.36 33.5333 1317.84 35.72C1316.32 37.88 1315.56 41.0933 1315.56 45.36C1315.56 49.6533 1316.32 52.8933 1317.84 55.08C1319.36 57.24 1321.73 58.32 1324.96 58.32ZM1411.55 24.76L1398.59 66H1389.67C1389.21 66 1388.8 65.8533 1388.43 65.56C1388.08 65.2667 1387.81 64.7733 1387.63 64.08L1380.91 41.76C1380.64 40.9067 1380.4 40.0667 1380.19 39.24C1380 38.3867 1379.83 37.5333 1379.67 36.68C1379.48 37.5333 1379.28 38.4 1379.07 39.28C1378.88 40.1333 1378.65 40.9867 1378.39 41.84L1371.59 64.08C1371.21 65.36 1370.41 66 1369.19 66H1360.71L1347.75 24.76H1356.55C1357.35 24.76 1358.01 24.9467 1358.55 25.32C1359.11 25.6933 1359.48 26.1733 1359.67 26.76L1364.75 47.16C1365.07 48.4667 1365.35 49.7333 1365.59 50.96C1365.83 52.1867 1366.05 53.4 1366.27 54.6C1366.59 53.4 1366.92 52.1867 1367.27 50.96C1367.64 49.7333 1368.03 48.4667 1368.43 47.16L1374.47 26.68C1374.65 26.12 1375.01 25.6533 1375.55 25.28C1376.08 24.9067 1376.71 24.72 1377.43 24.72H1382.31C1383.08 24.72 1383.73 24.9067 1384.27 25.28C1384.83 25.6533 1385.2 26.12 1385.39 26.68L1391.23 47.16C1391.6 48.44 1391.96 49.7067 1392.31 50.96C1392.65 52.1867 1392.97 53.4267 1393.27 54.68C1393.48 53.4533 1393.71 52.2267 1393.95 51C1394.21 49.7467 1394.52 48.4667 1394.87 47.16L1400.19 26.76C1400.37 26.1733 1400.73 25.6933 1401.27 25.32C1401.8 24.9467 1402.43 24.76 1403.15 24.76H1411.55ZM1513.3 7.96L1495.3 66H1484.46L1472.58 28.04C1472.39 27.5067 1472.21 26.92 1472.02 26.28C1471.83 25.64 1471.66 24.96 1471.5 24.24C1471.34 24.96 1471.17 25.64 1470.98 26.28C1470.79 26.92 1470.61 27.5067 1470.42 28.04L1458.42 66H1447.54L1429.58 7.96H1439.66C1440.7 7.96 1441.57 8.2 1442.26 8.68C1442.98 9.16 1443.45 9.8 1443.66 10.6L1452.66 43.32C1452.87 44.2267 1453.09 45.2133 1453.3 46.28C1453.54 47.32 1453.77 48.4267 1453.98 49.6C1454.22 48.4 1454.47 47.28 1454.74 46.24C1455.01 45.2 1455.3 44.2267 1455.62 43.32L1466.1 10.6C1466.31 9.93333 1466.77 9.33333 1467.46 8.8C1468.18 8.24 1469.05 7.96 1470.06 7.96H1473.58C1474.62 7.96 1475.46 8.21333 1476.1 8.72C1476.77 9.2 1477.26 9.82666 1477.58 10.6L1488.02 43.32C1488.34 44.1733 1488.63 45.1067 1488.9 46.12C1489.17 47.1067 1489.42 48.16 1489.66 49.28C1489.87 48.16 1490.07 47.1067 1490.26 46.12C1490.47 45.1067 1490.69 44.1733 1490.9 43.32L1499.9 10.6C1500.09 9.90666 1500.54 9.29333 1501.26 8.76C1501.98 8.22666 1502.85 7.96 1503.86 7.96H1513.3ZM1539.39 40.52C1539.39 39.3733 1539.23 38.28 1538.91 37.24C1538.62 36.2 1538.14 35.28 1537.47 34.48C1536.81 33.68 1535.97 33.0533 1534.95 32.6C1533.94 32.12 1532.73 31.88 1531.31 31.88C1528.67 31.88 1526.61 32.6267 1525.11 34.12C1523.62 35.6133 1522.65 37.7467 1522.19 40.52H1539.39ZM1522.03 47.08C1522.38 50.9467 1523.47 53.7733 1525.31 55.56C1527.18 57.3467 1529.61 58.24 1532.59 58.24C1534.11 58.24 1535.42 58.0667 1536.51 57.72C1537.63 57.3467 1538.61 56.9467 1539.43 56.52C1540.29 56.0667 1541.05 55.6667 1541.71 55.32C1542.41 54.9467 1543.09 54.76 1543.75 54.76C1544.61 54.76 1545.27 55.08 1545.75 55.72L1548.95 59.72C1547.78 61.08 1546.49 62.2133 1545.07 63.12C1543.66 64 1542.19 64.7067 1540.67 65.24C1539.15 65.7467 1537.62 66.0933 1536.07 66.28C1534.53 66.4933 1533.03 66.6 1531.59 66.6C1528.71 66.6 1526.02 66.1333 1523.51 65.2C1521.03 64.24 1518.86 62.84 1516.99 61C1515.15 59.1333 1513.7 56.8267 1512.63 54.08C1511.57 51.3333 1511.03 48.1467 1511.03 44.52C1511.03 41.72 1511.49 39.08 1512.39 36.6C1513.33 34.12 1514.66 31.96 1516.39 30.12C1518.13 28.28 1520.23 26.8267 1522.71 25.76C1525.19 24.6667 1527.99 24.12 1531.11 24.12C1533.75 24.12 1536.18 24.5467 1538.39 25.4C1540.63 26.2267 1542.55 27.44 1544.15 29.04C1545.78 30.64 1547.03 32.6133 1547.91 34.96C1548.82 37.28 1549.27 39.9333 1549.27 42.92C1549.27 43.7467 1549.23 44.4267 1549.15 44.96C1549.07 45.4933 1548.94 45.92 1548.75 46.24C1548.57 46.56 1548.31 46.7867 1547.99 46.92C1547.67 47.0267 1547.26 47.08 1546.75 47.08H1522.03ZM724.611 103.96V162H714.011V126.36C714.011 125.613 714.025 124.813 714.051 123.96C714.105 123.107 714.185 122.24 714.291 121.36L697.691 152.84C696.785 154.573 695.385 155.44 693.491 155.44H691.811C690.878 155.44 690.051 155.227 689.331 154.8C688.611 154.347 688.038 153.693 687.611 152.84L670.931 121.24C671.011 122.173 671.078 123.08 671.131 123.96C671.185 124.813 671.211 125.613 671.211 126.36V162H660.611V103.96H669.731C670.238 103.96 670.691 103.973 671.091 104C671.491 104.027 671.838 104.107 672.131 104.24C672.451 104.347 672.731 104.533 672.971 104.8C673.238 105.04 673.491 105.387 673.731 105.84L689.971 136.8C690.478 137.733 690.945 138.693 691.371 139.68C691.825 140.667 692.251 141.68 692.651 142.72C693.051 141.653 693.465 140.613 693.891 139.6C694.345 138.587 694.825 137.613 695.331 136.68L711.451 105.84C711.691 105.387 711.945 105.04 712.211 104.8C712.478 104.533 712.758 104.347 713.051 104.24C713.371 104.107 713.718 104.027 714.091 104C714.491 103.973 714.958 103.96 715.491 103.96H724.611ZM755.808 144.76C753.114 144.893 750.874 145.133 749.088 145.48C747.301 145.8 745.874 146.227 744.808 146.76C743.768 147.293 743.021 147.907 742.568 148.6C742.141 149.267 741.928 150 741.928 150.8C741.928 152.4 742.368 153.533 743.248 154.2C744.154 154.867 745.408 155.2 747.008 155.2C748.848 155.2 750.434 154.88 751.768 154.24C753.128 153.573 754.474 152.547 755.808 151.16V144.76ZM733.328 126.48C735.754 124.293 738.434 122.667 741.368 121.6C744.301 120.507 747.474 119.96 750.888 119.96C753.341 119.96 755.528 120.36 757.448 121.16C759.394 121.96 761.034 123.08 762.368 124.52C763.728 125.933 764.768 127.627 765.488 129.6C766.208 131.573 766.568 133.733 766.568 136.08V162H761.528C760.488 162 759.688 161.853 759.128 161.56C758.594 161.267 758.154 160.653 757.808 159.72L756.928 157.08C755.888 157.987 754.874 158.787 753.888 159.48C752.928 160.173 751.928 160.76 750.888 161.24C749.848 161.693 748.728 162.04 747.528 162.28C746.354 162.52 745.034 162.64 743.568 162.64C741.754 162.64 740.101 162.4 738.608 161.92C737.114 161.44 735.821 160.733 734.728 159.8C733.661 158.84 732.834 157.653 732.248 156.24C731.661 154.827 731.368 153.2 731.368 151.36C731.368 149.84 731.754 148.32 732.528 146.8C733.301 145.28 734.621 143.907 736.488 142.68C738.381 141.427 740.888 140.4 744.008 139.6C747.154 138.773 751.088 138.307 755.808 138.2V136.08C755.808 133.493 755.261 131.6 754.168 130.4C753.074 129.173 751.501 128.56 749.448 128.56C747.928 128.56 746.661 128.747 745.648 129.12C744.634 129.467 743.741 129.853 742.968 130.28C742.221 130.68 741.514 131.067 740.848 131.44C740.181 131.787 739.408 131.96 738.528 131.96C737.754 131.96 737.101 131.773 736.568 131.4C736.061 131 735.634 130.533 735.288 130L733.328 126.48ZM786.225 102.36V136.2H788.065C788.758 136.2 789.305 136.107 789.705 135.92C790.105 135.707 790.505 135.333 790.905 134.8L800.025 122.64C800.478 122.027 800.985 121.56 801.545 121.24C802.132 120.92 802.865 120.76 803.745 120.76H813.825L801.985 135.8C801.052 137.053 799.972 138.04 798.745 138.76C799.358 139.187 799.892 139.68 800.345 140.24C800.798 140.8 801.238 141.427 801.665 142.12L814.425 162H804.505C803.652 162 802.918 161.867 802.305 161.6C801.692 161.307 801.185 160.8 800.785 160.08L791.505 144.92C791.132 144.28 790.745 143.867 790.345 143.68C789.945 143.493 789.345 143.4 788.545 143.4H786.225V162H775.185V102.36H786.225ZM842.986 136.52C842.986 135.373 842.826 134.28 842.506 133.24C842.212 132.2 841.732 131.28 841.066 130.48C840.399 129.68 839.559 129.053 838.546 128.6C837.532 128.12 836.319 127.88 834.906 127.88C832.266 127.88 830.199 128.627 828.706 130.12C827.212 131.613 826.239 133.747 825.786 136.52H842.986ZM825.626 143.08C825.972 146.947 827.066 149.773 828.906 151.56C830.772 153.347 833.199 154.24 836.186 154.24C837.706 154.24 839.012 154.067 840.106 153.72C841.226 153.347 842.199 152.947 843.026 152.52C843.879 152.067 844.639 151.667 845.306 151.32C845.999 150.947 846.679 150.76 847.346 150.76C848.199 150.76 848.866 151.08 849.346 151.72L852.546 155.72C851.372 157.08 850.079 158.213 848.666 159.12C847.252 160 845.786 160.707 844.266 161.24C842.746 161.747 841.212 162.093 839.666 162.28C838.119 162.493 836.626 162.6 835.186 162.6C832.306 162.6 829.612 162.133 827.106 161.2C824.626 160.24 822.452 158.84 820.586 157C818.746 155.133 817.292 152.827 816.226 150.08C815.159 147.333 814.626 144.147 814.626 140.52C814.626 137.72 815.079 135.08 815.986 132.6C816.919 130.12 818.252 127.96 819.986 126.12C821.719 124.28 823.826 122.827 826.306 121.76C828.786 120.667 831.586 120.12 834.706 120.12C837.346 120.12 839.772 120.547 841.986 121.4C844.226 122.227 846.146 123.44 847.746 125.04C849.372 126.64 850.626 128.613 851.506 130.96C852.412 133.28 852.866 135.933 852.866 138.92C852.866 139.747 852.826 140.427 852.746 140.96C852.666 141.493 852.532 141.92 852.346 142.24C852.159 142.56 851.906 142.787 851.586 142.92C851.266 143.027 850.852 143.08 850.346 143.08H825.626ZM936.301 132.96C936.301 137.2 935.581 141.133 934.141 144.76C932.727 148.387 930.714 151.52 928.101 154.16C925.514 156.8 922.394 158.88 918.741 160.4C915.087 161.893 911.034 162.64 906.581 162.64C902.127 162.64 898.074 161.893 894.421 160.4C890.767 158.88 887.634 156.8 885.021 154.16C882.407 151.52 880.381 148.387 878.941 144.76C877.527 141.133 876.821 137.2 876.821 132.96C876.821 128.72 877.527 124.8 878.941 121.2C880.381 117.573 882.407 114.44 885.021 111.8C887.634 109.16 890.767 107.093 894.421 105.6C898.074 104.08 902.127 103.32 906.581 103.32C911.034 103.32 915.087 104.08 918.741 105.6C922.394 107.093 925.514 109.173 928.101 111.84C930.714 114.48 932.727 117.613 934.141 121.24C935.581 124.84 936.301 128.747 936.301 132.96ZM924.021 132.96C924.021 129.92 923.621 127.2 922.821 124.8C922.021 122.373 920.861 120.32 919.341 118.64C917.847 116.933 916.021 115.64 913.861 114.76C911.727 113.853 909.301 113.4 906.581 113.4C903.861 113.4 901.421 113.853 899.261 114.76C897.101 115.64 895.261 116.933 893.741 118.64C892.247 120.32 891.101 122.373 890.301 124.8C889.501 127.2 889.101 129.92 889.101 132.96C889.101 136.027 889.501 138.773 890.301 141.2C891.101 143.6 892.247 145.64 893.741 147.32C895.261 149 897.101 150.293 899.261 151.2C901.421 152.08 903.861 152.52 906.581 152.52C909.301 152.52 911.727 152.08 913.861 151.2C916.021 150.293 917.847 149 919.341 147.32C920.861 145.64 922.021 143.6 922.821 141.2C923.621 138.773 924.021 136.027 924.021 132.96ZM979.276 120.76V162H972.476C971.062 162 970.156 161.36 969.756 160.08L969.036 157.2C968.209 158 967.356 158.733 966.476 159.4C965.596 160.067 964.649 160.64 963.636 161.12C962.649 161.6 961.569 161.973 960.396 162.24C959.249 162.507 957.996 162.64 956.636 162.64C954.396 162.64 952.396 162.253 950.636 161.48C948.902 160.707 947.449 159.627 946.276 158.24C945.102 156.853 944.209 155.2 943.596 153.28C942.982 151.36 942.676 149.253 942.676 146.96V120.76H953.716V146.96C953.716 149.253 954.236 151.04 955.276 152.32C956.342 153.573 957.916 154.2 959.996 154.2C961.542 154.2 962.996 153.867 964.356 153.2C965.716 152.507 967.009 151.573 968.236 150.4V120.76H979.276ZM998.748 127.56C1000.05 125.213 1001.56 123.36 1003.27 122C1004.97 120.64 1006.97 119.96 1009.27 119.96C1011.13 119.96 1012.65 120.4 1013.83 121.28L1013.11 129.44C1012.97 129.973 1012.76 130.347 1012.47 130.56C1012.2 130.747 1011.83 130.84 1011.35 130.84C1010.92 130.84 1010.31 130.787 1009.51 130.68C1008.71 130.547 1007.96 130.48 1007.27 130.48C1006.25 130.48 1005.35 130.627 1004.55 130.92C1003.77 131.213 1003.08 131.627 1002.47 132.16C1001.85 132.693 1001.29 133.347 1000.79 134.12C1000.31 134.893 999.855 135.773 999.428 136.76V162H988.388V120.76H994.908C996.028 120.76 996.801 120.96 997.228 121.36C997.655 121.76 997.961 122.453 998.148 123.44L998.748 127.56ZM1049.49 113.36V129.4H1070.37V138.84H1049.49V162H1037.41V103.96H1074.37V113.36H1049.49ZM1096.13 120.12C1099.22 120.12 1102.04 120.613 1104.57 121.6C1107.1 122.587 1109.28 124 1111.09 125.84C1112.9 127.653 1114.3 129.867 1115.29 132.48C1116.28 135.093 1116.77 138.04 1116.77 141.32C1116.77 144.6 1116.28 147.56 1115.29 150.2C1114.3 152.813 1112.9 155.04 1111.09 156.88C1109.28 158.72 1107.1 160.133 1104.57 161.12C1102.04 162.107 1099.22 162.6 1096.13 162.6C1093.01 162.6 1090.17 162.107 1087.61 161.12C1085.08 160.133 1082.9 158.72 1081.09 156.88C1079.28 155.04 1077.86 152.813 1076.85 150.2C1075.86 147.56 1075.37 144.6 1075.37 141.32C1075.37 138.04 1075.86 135.093 1076.85 132.48C1077.86 129.867 1079.28 127.653 1081.09 125.84C1082.9 124 1085.08 122.587 1087.61 121.6C1090.17 120.613 1093.01 120.12 1096.13 120.12ZM1096.13 154.32C1099.28 154.32 1101.61 153.24 1103.13 151.08C1104.65 148.893 1105.41 145.653 1105.41 141.36C1105.41 137.093 1104.65 133.88 1103.13 131.72C1101.61 129.533 1099.28 128.44 1096.13 128.44C1092.9 128.44 1090.53 129.533 1089.01 131.72C1087.49 133.88 1086.73 137.093 1086.73 141.36C1086.73 145.653 1087.49 148.893 1089.01 151.08C1090.53 153.24 1092.9 154.32 1096.13 154.32ZM1142.3 120.12C1145.39 120.12 1148.21 120.613 1150.74 121.6C1153.27 122.587 1155.45 124 1157.26 125.84C1159.07 127.653 1160.47 129.867 1161.46 132.48C1162.45 135.093 1162.94 138.04 1162.94 141.32C1162.94 144.6 1162.45 147.56 1161.46 150.2C1160.47 152.813 1159.07 155.04 1157.26 156.88C1155.45 158.72 1153.27 160.133 1150.74 161.12C1148.21 162.107 1145.39 162.6 1142.3 162.6C1139.18 162.6 1136.34 162.107 1133.78 161.12C1131.25 160.133 1129.07 158.72 1127.26 156.88C1125.45 155.04 1124.03 152.813 1123.02 150.2C1122.03 147.56 1121.54 144.6 1121.54 141.32C1121.54 138.04 1122.03 135.093 1123.02 132.48C1124.03 129.867 1125.45 127.653 1127.26 125.84C1129.07 124 1131.25 122.587 1133.78 121.6C1136.34 120.613 1139.18 120.12 1142.3 120.12ZM1142.3 154.32C1145.45 154.32 1147.78 153.24 1149.3 151.08C1150.82 148.893 1151.58 145.653 1151.58 141.36C1151.58 137.093 1150.82 133.88 1149.3 131.72C1147.78 129.533 1145.45 128.44 1142.3 128.44C1139.07 128.44 1136.7 129.533 1135.18 131.72C1133.66 133.88 1132.9 137.093 1132.9 141.36C1132.9 145.653 1133.66 148.893 1135.18 151.08C1136.7 153.24 1139.07 154.32 1142.3 154.32ZM1195.35 131.48C1194.31 130.28 1193.18 129.44 1191.95 128.96C1190.75 128.48 1189.47 128.24 1188.11 128.24C1186.78 128.24 1185.57 128.493 1184.47 129C1183.38 129.507 1182.43 130.307 1181.63 131.4C1180.86 132.467 1180.26 133.84 1179.83 135.52C1179.41 137.2 1179.19 139.2 1179.19 141.52C1179.19 143.813 1179.37 145.76 1179.71 147.36C1180.06 148.96 1180.55 150.253 1181.19 151.24C1181.86 152.227 1182.66 152.947 1183.59 153.4C1184.53 153.827 1185.57 154.04 1186.71 154.04C1188.66 154.04 1190.29 153.653 1191.59 152.88C1192.93 152.107 1194.18 151.013 1195.35 149.6V131.48ZM1206.39 102.36V162H1199.59C1198.18 162 1197.27 161.36 1196.87 160.08L1195.95 156.48C1195.13 157.387 1194.25 158.213 1193.31 158.96C1192.41 159.707 1191.42 160.36 1190.35 160.92C1189.29 161.453 1188.14 161.867 1186.91 162.16C1185.69 162.453 1184.35 162.6 1182.91 162.6C1180.7 162.6 1178.67 162.133 1176.83 161.2C1174.99 160.267 1173.39 158.907 1172.03 157.12C1170.7 155.307 1169.66 153.093 1168.91 150.48C1168.17 147.867 1167.79 144.88 1167.79 141.52C1167.79 138.453 1168.21 135.6 1169.03 132.96C1169.89 130.32 1171.09 128.04 1172.63 126.12C1174.18 124.2 1176.05 122.693 1178.23 121.6C1180.42 120.507 1182.85 119.96 1185.51 119.96C1187.75 119.96 1189.63 120.293 1191.15 120.96C1192.7 121.627 1194.1 122.533 1195.35 123.68V102.36H1206.39ZM1241.22 129.24C1240.92 129.693 1240.62 130.027 1240.3 130.24C1240 130.427 1239.59 130.52 1239.06 130.52C1238.52 130.52 1237.98 130.387 1237.42 130.12C1236.86 129.853 1236.23 129.573 1235.54 129.28C1234.84 128.96 1234.04 128.667 1233.14 128.4C1232.26 128.133 1231.23 128 1230.06 128C1228.27 128 1226.88 128.373 1225.9 129.12C1224.91 129.84 1224.42 130.8 1224.42 132C1224.42 132.827 1224.7 133.52 1225.26 134.08C1225.82 134.64 1226.55 135.133 1227.46 135.56C1228.39 135.96 1229.44 136.347 1230.62 136.72C1231.79 137.067 1232.99 137.453 1234.22 137.88C1235.47 138.307 1236.68 138.8 1237.86 139.36C1239.03 139.92 1240.07 140.627 1240.98 141.48C1241.91 142.307 1242.66 143.32 1243.22 144.52C1243.78 145.693 1244.06 147.12 1244.06 148.8C1244.06 150.8 1243.68 152.653 1242.94 154.36C1242.22 156.04 1241.15 157.493 1239.74 158.72C1238.32 159.947 1236.56 160.907 1234.46 161.6C1232.35 162.293 1229.92 162.64 1227.18 162.64C1225.76 162.64 1224.36 162.507 1222.98 162.24C1221.59 162 1220.27 161.653 1219.02 161.2C1217.76 160.72 1216.59 160.173 1215.5 159.56C1214.4 158.947 1213.46 158.28 1212.66 157.56L1215.22 153.44C1215.51 152.96 1215.87 152.587 1216.3 152.32C1216.75 152.053 1217.32 151.92 1218.02 151.92C1218.68 151.92 1219.3 152.093 1219.86 152.44C1220.42 152.76 1221.04 153.12 1221.74 153.52C1222.43 153.893 1223.24 154.253 1224.18 154.6C1225.14 154.92 1226.32 155.08 1227.74 155.08C1228.8 155.08 1229.72 154.96 1230.5 154.72C1231.27 154.48 1231.9 154.16 1232.38 153.76C1232.86 153.333 1233.2 152.867 1233.42 152.36C1233.66 151.827 1233.78 151.28 1233.78 150.72C1233.78 149.813 1233.48 149.08 1232.9 148.52C1232.34 147.933 1231.59 147.427 1230.66 147C1229.75 146.573 1228.7 146.187 1227.5 145.84C1226.3 145.493 1225.07 145.107 1223.82 144.68C1222.59 144.253 1221.38 143.747 1220.18 143.16C1219 142.573 1217.95 141.84 1217.02 140.96C1216.11 140.053 1215.36 138.947 1214.78 137.64C1214.22 136.333 1213.94 134.747 1213.94 132.88C1213.94 131.173 1214.27 129.56 1214.94 128.04C1215.6 126.493 1216.6 125.133 1217.94 123.96C1219.27 122.787 1220.92 121.853 1222.9 121.16C1224.9 120.467 1227.2 120.12 1229.82 120.12C1232.75 120.12 1235.42 120.6 1237.82 121.56C1240.22 122.52 1242.19 123.773 1243.74 125.32L1241.22 129.24ZM1249.41 156.2C1249.41 155.32 1249.57 154.493 1249.89 153.72C1250.23 152.92 1250.7 152.24 1251.29 151.68C1251.87 151.093 1252.55 150.64 1253.33 150.32C1254.13 149.973 1254.99 149.8 1255.93 149.8C1256.83 149.8 1257.69 149.973 1258.49 150.32C1259.29 150.64 1259.98 151.093 1260.57 151.68C1261.15 152.24 1261.61 152.92 1261.93 153.72C1262.27 154.493 1262.45 155.32 1262.45 156.2C1262.45 157.107 1262.27 157.947 1261.93 158.72C1261.61 159.493 1261.15 160.173 1260.57 160.76C1259.98 161.32 1259.29 161.76 1258.49 162.08C1257.69 162.4 1256.83 162.56 1255.93 162.56C1254.99 162.56 1254.13 162.4 1253.33 162.08C1252.55 161.76 1251.87 161.32 1251.29 160.76C1250.7 160.173 1250.23 159.493 1249.89 158.72C1249.57 157.947 1249.41 157.107 1249.41 156.2Z" fill="black"/>
</g>
<path d="M286.667 83C286.667 90.3638 292.636 96.3333 300 96.3333C307.364 96.3333 313.333 90.3638 313.333 83C313.333 75.6362 307.364 69.6667 300 69.6667C292.636 69.6667 286.667 75.6362 286.667 83ZM0 85.5H300V80.5H0V85.5Z" fill="black"/>
<path d="M1606.67 83C1606.67 90.3638 1612.64 96.3333 1620 96.3333C1627.36 96.3333 1633.33 90.3638 1633.33 83C1633.33 75.6362 1627.36 69.6667 1620 69.6667C1612.64 69.6667 1606.67 75.6362 1606.67 83ZM1620 85.5H1920V80.5H1620V85.5Z" fill="black"/>
<defs>
<filter id="filter0_d_0_1" x="345.533" y="0.919922" width="1213.74" height="175.72" filterUnits="userSpaceOnUse" color-interpolation-filters="sRGB">
<feFlood flood-opacity="0" result="BackgroundImageFix"/>
<feColorMatrix in="SourceAlpha" type="matrix" values="0 0 0 0 0 0 0 0 0 0 0 0 0 0 0 0 0 0 127 0" result="hardAlpha"/>
<feOffset dy="4"/>
<feGaussianBlur stdDeviation="5"/>
<feComposite in2="hardAlpha" operator="out"/>
<feColorMatrix type="matrix" values="0 0 0 0 0 0 0 0 0 0 0 0 0 0 0 0 0 0 0.3 0"/>
<feBlend mode="normal" in2="BackgroundImageFix" result="effect1_dropShadow_0_1"/>
<feBlend mode="normal" in="SourceGraphic" in2="effect1_dropShadow_0_1" result="shape"/>
</filter>
</defs>
</svg>
