<svg width="1920" height="32" viewBox="0 0 1920 32" fill="none" xmlns="http://www.w3.org/2000/svg">
<path d="M641.667 18C641.667 25.3638 647.636 31.3333 655 31.3333C662.364 31.3333 668.333 25.3638 668.333 18C668.333 10.6362 662.364 4.66667 655 4.66667C647.636 4.66667 641.667 10.6362 641.667 18ZM0 20.5H655V15.5H0V20.5Z" fill="black"/>
<path d="M1251.67 14C1251.67 21.3638 1257.64 27.3333 1265 27.3333C1272.36 27.3333 1278.33 21.3638 1278.33 14C1278.33 6.6362 1272.36 0.666667 1265 0.666667C1257.64 0.666667 1251.67 6.6362 1251.67 14ZM1265 16.5H1920V11.5H1265V16.5Z" fill="black"/>
</svg>
