<svg width="1920" height="28" viewBox="0 0 1920 28" fill="none" xmlns="http://www.w3.org/2000/svg">
<path d="M474.667 14C474.667 21.3638 480.636 27.3333 488 27.3333C495.364 27.3333 501.333 21.3638 501.333 14C501.333 6.6362 495.364 0.666667 488 0.666667C480.636 0.666667 474.667 6.6362 474.667 14ZM-167 16.5H488V11.5H-167V16.5Z" fill="black"/>
<path d="M1430.67 14C1430.67 21.3638 1436.64 27.3333 1444 27.3333C1451.36 27.3333 1457.33 21.3638 1457.33 14C1457.33 6.6362 1451.36 0.666667 1444 0.666667C1436.64 0.666667 1430.67 6.6362 1430.67 14ZM1444 16.5H2099V11.5H1444V16.5Z" fill="black"/>
</svg>
